<?xml version="1.0" encoding="UTF-8"?>
<svg id="Ebene_1" data-name="Ebene 1" xmlns="http://www.w3.org/2000/svg" viewBox="0 0 360.27 139.17">
  <defs>
    <style>
      .cls-1 {
        fill: #f1666a;
      }

      .cls-2 {
        fill: #b5d553;
      }

      .cls-3 {
        fill: #200;
      }

      .cls-4 {
        fill: #47c0b8;
      }
    </style>
  </defs>
  <g>
    <polygon class="cls-1" points="151.42 39.82 124.41 54.41 96.98 69.23 75.27 80.96 54.42 69.57 27 54.58 0 39.82 76.15 0 151.42 39.82"/>
    <polygon class="cls-2" points="151.42 68.71 124 83.52 75.27 109.84 27.41 83.69 0 68.71 27 54.58 54.42 69.57 75.27 80.96 96.98 69.23 124.41 54.41 151.42 68.71"/>
    <polygon class="cls-4" points="151.42 98.03 75.27 139.17 0 98.03 27.41 83.69 75.27 109.84 124 83.52 151.42 98.03"/>
  </g>
  <g>
    <path class="cls-3" d="M195.23,81.01c0-2.09-.79-3.72-2.37-4.88-1.58-1.16-4.33-2.16-8.25-2.99-3.92-.84-7.03-1.84-9.34-3.01-2.3-1.17-4.01-2.57-5.11-4.19-1.1-1.62-1.65-3.54-1.65-5.78,0-3.71,1.57-6.85,4.71-9.42,3.14-2.57,7.15-3.85,12.04-3.85,5.14,0,9.3,1.33,12.5,3.98,3.2,2.65,4.79,6.04,4.79,10.17h-7.79c0-2.12-.9-3.95-2.7-5.48-1.8-1.54-4.07-2.3-6.8-2.3s-5.02,.61-6.62,1.84c-1.59,1.23-2.39,2.83-2.39,4.82,0,1.87,.74,3.28,2.22,4.23s4.15,1.86,8.02,2.72c3.87,.87,7,1.9,9.4,3.1s4.18,2.64,5.34,4.33c1.16,1.69,1.74,3.75,1.74,6.18,0,4.05-1.62,7.29-4.86,9.73s-7.44,3.66-12.6,3.66c-3.63,0-6.84-.64-9.63-1.93-2.79-1.28-4.98-3.08-6.55-5.38s-2.37-4.79-2.37-7.47h7.75c.14,2.6,1.18,4.66,3.12,6.18,1.94,1.52,4.5,2.28,7.68,2.28,2.93,0,5.28-.59,7.05-1.78,1.77-1.19,2.66-2.77,2.66-4.75Z"/>
    <path class="cls-3" d="M242.75,88.55c-3.01,3.54-7.44,5.32-13.27,5.32-4.83,0-8.51-1.4-11.03-4.21-2.53-2.81-3.8-6.96-3.83-12.46v-29.47h7.75v29.27c0,6.87,2.79,10.3,8.37,10.3,5.92,0,9.85-2.2,11.81-6.62V47.73h7.75v45.3h-7.37l-.17-4.48Z"/>
    <path class="cls-3" d="M285.67,54.68c-1.17-.19-2.44-.29-3.81-.29-5.08,0-8.53,2.16-10.34,6.49v32.15h-7.75V47.73h7.54l.13,5.23c2.54-4.05,6.14-6.07,10.8-6.07,1.51,0,2.65,.2,3.43,.59v7.2Z"/>
    <path class="cls-3" d="M298.94,93.03V53.71h-7.16v-5.99h7.16v-4.65c0-4.86,1.3-8.61,3.89-11.26,2.6-2.65,6.27-3.98,11.01-3.98,1.79,0,3.56,.24,5.32,.71l-.42,6.24c-1.31-.25-2.71-.38-4.19-.38-2.51,0-4.45,.74-5.82,2.21-1.37,1.47-2.05,3.58-2.05,6.32v4.79h9.67v5.99h-9.67v39.31h-7.74Z"/>
    <path class="cls-3" d="M341.43,81.68l10.55-33.95h8.29l-18.21,52.29c-2.82,7.54-7.3,11.3-13.44,11.3l-1.46-.12-2.89-.54v-6.28l2.09,.17c2.62,0,4.67-.53,6.13-1.59,1.46-1.06,2.67-3,3.62-5.82l1.72-4.61-16.16-44.8h8.46l11.3,33.95Z"/>
  </g>
</svg>